ISO-10303-21;
HEADER;
/* Generated by software containing ST-Developer
 * from STEP Tools, Inc. (www.steptools.com) 
 */
/* OPTION: using custom renumber hook */

FILE_DESCRIPTION(
/* description */ ('STEP AP242 Edition 2',
'CAx-IF Rec.Pracs.---Representation and Presentation of Product Manufa
cturing Information (PMI)---4.0---2014-10-13',
'CAx-IF Rec.Pracs.---3D Tessellated Geometry---0.4---2014-09-14','2;1',
'CAx-IF Rec.Pracs.---User Defined Attributes---1.5---2016-08-15'),
/* implementation_level */ '2;1');

FILE_NAME(
/* name */ 'Part Studio 1 - caja inferior-B',
/* time_stamp */ '2026-01-29T16:01:49Z',
/* author */ (''),
/* organization */ (''),
/* preprocessor_version */ 'ST-DEVELOPER v20',
/* originating_system */ 'ONSHAPE BY PTC INC, 1.209',
/* authorisation */ '  ');

FILE_SCHEMA (('AP242_MANAGED_MODEL_BASED_3D_ENGINEERING_MIM_LF { 1 0 10303 442 3 1 4 }'));
ENDSEC;

DATA;
#10=SHAPE_REPRESENTATION_RELATIONSHIP('','',#760,#11);
#11=ADVANCED_BREP_SHAPE_REPRESENTATION('',(#758),#1320);
#12=ELLIPSE('',#800,0.000707106781186548,0.0005);
#13=ELLIPSE('',#801,0.000707106781186548,0.0005);
#14=ELLIPSE('',#803,0.000707106781186548,0.0005);
#15=ELLIPSE('',#805,0.000707106781186548,0.0005);
#16=ELLIPSE('',#807,0.000707106781186548,0.0005);
#17=ELLIPSE('',#840,0.000707106781186548,0.0005);
#18=CYLINDRICAL_SURFACE('',#785,0.0005);
#19=CYLINDRICAL_SURFACE('',#787,0.00396047014954375);
#20=CYLINDRICAL_SURFACE('',#788,0.0005);
#21=CYLINDRICAL_SURFACE('',#789,0.0045);
#22=CYLINDRICAL_SURFACE('',#790,0.0005);
#23=CYLINDRICAL_SURFACE('',#795,0.0005);
#24=CYLINDRICAL_SURFACE('',#799,0.0005);
#25=CYLINDRICAL_SURFACE('',#802,0.0005);
#26=CYLINDRICAL_SURFACE('',#804,0.0005);
#27=CYLINDRICAL_SURFACE('',#806,0.0005);
#28=CYLINDRICAL_SURFACE('',#808,0.0045);
#29=CYLINDRICAL_SURFACE('',#810,0.0005);
#30=CYLINDRICAL_SURFACE('',#812,0.0005);
#31=CYLINDRICAL_SURFACE('',#815,0.0005);
#32=CYLINDRICAL_SURFACE('',#820,0.0005);
#33=CYLINDRICAL_SURFACE('',#822,0.0005);
#34=CYLINDRICAL_SURFACE('',#825,0.0005);
#35=CYLINDRICAL_SURFACE('',#831,0.0045);
#36=CYLINDRICAL_SURFACE('',#839,0.0005);
#37=CYLINDRICAL_SURFACE('',#841,0.0005);
#38=CYLINDRICAL_SURFACE('',#843,0.0005);
#39=CYLINDRICAL_SURFACE('',#845,0.0005);
#40=LINE('',#1118,#101);
#41=LINE('',#1123,#102);
#42=LINE('',#1124,#103);
#43=LINE('',#1125,#104);
#44=LINE('',#1149,#105);
#45=LINE('',#1151,#106);
#46=LINE('',#1152,#107);
#47=LINE('',#1154,#108);
#48=LINE('',#1156,#109);
#49=LINE('',#1157,#110);
#50=LINE('',#1159,#111);
#51=LINE('',#1167,#112);
#52=LINE('',#1176,#113);
#53=LINE('',#1180,#114);
#54=LINE('',#1185,#115);
#55=LINE('',#1186,#116);
#56=LINE('',#1188,#117);
#57=LINE('',#1192,#118);
#58=LINE('',#1197,#119);
#59=LINE('',#1198,#120);
#60=LINE('',#1200,#121);
#61=LINE('',#1204,#122);
#62=LINE('',#1209,#123);
#63=LINE('',#1210,#124);
#64=LINE('',#1212,#125);
#65=LINE('',#1216,#126);
#66=LINE('',#1223,#127);
#67=LINE('',#1227,#128);
#68=LINE('',#1229,#129);
#69=LINE('',#1230,#130);
#70=LINE('',#1232,#131);
#71=LINE('',#1233,#132);
#72=LINE('',#1238,#133);
#73=LINE('',#1239,#134);
#74=LINE('',#1244,#135);
#75=LINE('',#1247,#136);
#76=LINE('',#1252,#137);
#77=LINE('',#1256,#138);
#78=LINE('',#1258,#139);
#79=LINE('',#1259,#140);
#80=LINE('',#1261,#141);
#81=LINE('',#1262,#142);
#82=LINE('',#1264,#143);
#83=LINE('',#1266,#144);
#84=LINE('',#1267,#145);
#85=LINE('',#1269,#146);
#86=LINE('',#1273,#147);
#87=LINE('',#1275,#148);
#88=LINE('',#1279,#149);
#89=LINE('',#1283,#150);
#90=LINE('',#1287,#151);
#91=LINE('',#1291,#152);
#92=LINE('',#1296,#153);
#93=LINE('',#1297,#154);
#94=LINE('',#1299,#155);
#95=LINE('',#1303,#156);
#96=LINE('',#1305,#157);
#97=LINE('',#1309,#158);
#98=LINE('',#1311,#159);
#99=LINE('',#1313,#160);
#100=LINE('',#1315,#161);
#101=VECTOR('',#877,1.);
#102=VECTOR('',#880,1.);
#103=VECTOR('',#881,1.);
#104=VECTOR('',#882,1.);
#105=VECTOR('',#909,1.);
#106=VECTOR('',#912,1.);
#107=VECTOR('',#913,1.);
#108=VECTOR('',#916,1.);
#109=VECTOR('',#919,1.);
#110=VECTOR('',#920,1.);
#111=VECTOR('',#923,1.);
#112=VECTOR('',#934,1.);
#113=VECTOR('',#945,1.);
#114=VECTOR('',#948,1.);
#115=VECTOR('',#953,1.);
#116=VECTOR('',#954,1.);
#117=VECTOR('',#957,1.);
#118=VECTOR('',#960,1.);
#119=VECTOR('',#965,1.);
#120=VECTOR('',#966,1.);
#121=VECTOR('',#969,1.);
#122=VECTOR('',#972,1.);
#123=VECTOR('',#977,1.);
#124=VECTOR('',#978,1.);
#125=VECTOR('',#981,1.);
#126=VECTOR('',#984,1.);
#127=VECTOR('',#991,1.);
#128=VECTOR('',#994,1.);
#129=VECTOR('',#997,1.);
#130=VECTOR('',#998,1.);
#131=VECTOR('',#1001,1.);
#132=VECTOR('',#1002,1.);
#133=VECTOR('',#1007,1.);
#134=VECTOR('',#1008,1.);
#135=VECTOR('',#1013,1.);
#136=VECTOR('',#1016,1.);
#137=VECTOR('',#1021,1.);
#138=VECTOR('',#1024,1.);
#139=VECTOR('',#1027,1.);
#140=VECTOR('',#1028,1.);
#141=VECTOR('',#1031,1.);
#142=VECTOR('',#1032,1.);
#143=VECTOR('',#1035,1.);
#144=VECTOR('',#1036,1.);
#145=VECTOR('',#1037,1.);
#146=VECTOR('',#1040,1.);
#147=VECTOR('',#1045,1.);
#148=VECTOR('',#1048,1.);
#149=VECTOR('',#1053,1.);
#150=VECTOR('',#1056,1.);
#151=VECTOR('',#1059,1.);
#152=VECTOR('',#1064,1.);
#153=VECTOR('',#1069,1.);
#154=VECTOR('',#1070,1.);
#155=VECTOR('',#1073,1.);
#156=VECTOR('',#1076,1.);
#157=VECTOR('',#1079,1.);
#158=VECTOR('',#1082,1.);
#159=VECTOR('',#1085,1.);
#160=VECTOR('',#1088,1.);
#161=VECTOR('',#1091,1.);
#162=PLANE('',#772);
#163=PLANE('',#818);
#164=PLANE('',#819);
#165=PLANE('',#828);
#166=PLANE('',#829);
#167=PLANE('',#830);
#168=PLANE('',#833);
#169=PLANE('',#834);
#170=PLANE('',#835);
#171=PLANE('',#847);
#172=PLANE('',#848);
#173=PLANE('',#849);
#174=PLANE('',#850);
#175=PLANE('',#851);
#176=PLANE('',#852);
#177=ORIENTED_EDGE('',*,*,#395,.T.);
#178=ORIENTED_EDGE('',*,*,#396,.F.);
#179=ORIENTED_EDGE('',*,*,#397,.F.);
#180=ORIENTED_EDGE('',*,*,#398,.F.);
#181=ORIENTED_EDGE('',*,*,#399,.F.);
#182=ORIENTED_EDGE('',*,*,#400,.F.);
#183=ORIENTED_EDGE('',*,*,#401,.F.);
#184=ORIENTED_EDGE('',*,*,#402,.F.);
#185=ORIENTED_EDGE('',*,*,#403,.T.);
#186=ORIENTED_EDGE('',*,*,#404,.T.);
#187=ORIENTED_EDGE('',*,*,#405,.T.);
#188=ORIENTED_EDGE('',*,*,#396,.T.);
#189=ORIENTED_EDGE('',*,*,#406,.T.);
#190=ORIENTED_EDGE('',*,*,#402,.T.);
#191=ORIENTED_EDGE('',*,*,#407,.T.);
#192=ORIENTED_EDGE('',*,*,#408,.T.);
#193=ORIENTED_EDGE('',*,*,#409,.T.);
#194=ORIENTED_EDGE('',*,*,#410,.F.);
#195=ORIENTED_EDGE('',*,*,#411,.F.);
#196=ORIENTED_EDGE('',*,*,#412,.F.);
#197=ORIENTED_EDGE('',*,*,#413,.T.);
#198=ORIENTED_EDGE('',*,*,#414,.F.);
#199=ORIENTED_EDGE('',*,*,#415,.F.);
#200=ORIENTED_EDGE('',*,*,#416,.F.);
#201=ORIENTED_EDGE('',*,*,#397,.T.);
#202=ORIENTED_EDGE('',*,*,#405,.F.);
#203=ORIENTED_EDGE('',*,*,#417,.F.);
#204=ORIENTED_EDGE('',*,*,#418,.F.);
#205=ORIENTED_EDGE('',*,*,#419,.F.);
#206=ORIENTED_EDGE('',*,*,#416,.T.);
#207=ORIENTED_EDGE('',*,*,#420,.T.);
#208=ORIENTED_EDGE('',*,*,#398,.T.);
#209=ORIENTED_EDGE('',*,*,#399,.T.);
#210=ORIENTED_EDGE('',*,*,#406,.F.);
#211=ORIENTED_EDGE('',*,*,#395,.F.);
#212=ORIENTED_EDGE('',*,*,#421,.F.);
#213=ORIENTED_EDGE('',*,*,#422,.F.);
#214=ORIENTED_EDGE('',*,*,#412,.T.);
#215=ORIENTED_EDGE('',*,*,#423,.T.);
#216=ORIENTED_EDGE('',*,*,#400,.T.);
#217=ORIENTED_EDGE('',*,*,#401,.T.);
#218=ORIENTED_EDGE('',*,*,#424,.F.);
#219=ORIENTED_EDGE('',*,*,#425,.F.);
#220=ORIENTED_EDGE('',*,*,#407,.F.);
#221=ORIENTED_EDGE('',*,*,#425,.T.);
#222=ORIENTED_EDGE('',*,*,#426,.F.);
#223=ORIENTED_EDGE('',*,*,#427,.F.);
#224=ORIENTED_EDGE('',*,*,#408,.F.);
#225=ORIENTED_EDGE('',*,*,#427,.T.);
#226=ORIENTED_EDGE('',*,*,#428,.F.);
#227=ORIENTED_EDGE('',*,*,#429,.F.);
#228=ORIENTED_EDGE('',*,*,#403,.F.);
#229=ORIENTED_EDGE('',*,*,#429,.T.);
#230=ORIENTED_EDGE('',*,*,#430,.F.);
#231=ORIENTED_EDGE('',*,*,#417,.T.);
#232=ORIENTED_EDGE('',*,*,#404,.F.);
#233=ORIENTED_EDGE('',*,*,#431,.F.);
#234=ORIENTED_EDGE('',*,*,#432,.F.);
#235=ORIENTED_EDGE('',*,*,#433,.F.);
#236=ORIENTED_EDGE('',*,*,#434,.F.);
#237=ORIENTED_EDGE('',*,*,#435,.T.);
#238=ORIENTED_EDGE('',*,*,#436,.F.);
#239=ORIENTED_EDGE('',*,*,#409,.F.);
#240=ORIENTED_EDGE('',*,*,#437,.F.);
#241=ORIENTED_EDGE('',*,*,#438,.F.);
#242=ORIENTED_EDGE('',*,*,#439,.F.);
#243=ORIENTED_EDGE('',*,*,#440,.F.);
#244=ORIENTED_EDGE('',*,*,#411,.T.);
#245=ORIENTED_EDGE('',*,*,#441,.T.);
#246=ORIENTED_EDGE('',*,*,#442,.F.);
#247=ORIENTED_EDGE('',*,*,#413,.F.);
#248=ORIENTED_EDGE('',*,*,#443,.F.);
#249=ORIENTED_EDGE('',*,*,#444,.F.);
#250=ORIENTED_EDGE('',*,*,#445,.T.);
#251=ORIENTED_EDGE('',*,*,#446,.T.);
#252=ORIENTED_EDGE('',*,*,#430,.T.);
#253=ORIENTED_EDGE('',*,*,#447,.F.);
#254=ORIENTED_EDGE('',*,*,#448,.F.);
#255=ORIENTED_EDGE('',*,*,#431,.T.);
#256=ORIENTED_EDGE('',*,*,#449,.F.);
#257=ORIENTED_EDGE('',*,*,#450,.F.);
#258=ORIENTED_EDGE('',*,*,#451,.F.);
#259=ORIENTED_EDGE('',*,*,#452,.F.);
#260=ORIENTED_EDGE('',*,*,#453,.F.);
#261=ORIENTED_EDGE('',*,*,#441,.F.);
#262=ORIENTED_EDGE('',*,*,#454,.F.);
#263=ORIENTED_EDGE('',*,*,#455,.F.);
#264=ORIENTED_EDGE('',*,*,#456,.F.);
#265=ORIENTED_EDGE('',*,*,#457,.F.);
#266=ORIENTED_EDGE('',*,*,#458,.T.);
#267=ORIENTED_EDGE('',*,*,#455,.T.);
#268=ORIENTED_EDGE('',*,*,#459,.F.);
#269=ORIENTED_EDGE('',*,*,#452,.T.);
#270=ORIENTED_EDGE('',*,*,#460,.T.);
#271=ORIENTED_EDGE('',*,*,#457,.T.);
#272=ORIENTED_EDGE('',*,*,#461,.F.);
#273=ORIENTED_EDGE('',*,*,#449,.T.);
#274=ORIENTED_EDGE('',*,*,#462,.F.);
#275=ORIENTED_EDGE('',*,*,#463,.F.);
#276=ORIENTED_EDGE('',*,*,#433,.T.);
#277=ORIENTED_EDGE('',*,*,#464,.F.);
#278=ORIENTED_EDGE('',*,*,#465,.F.);
#279=ORIENTED_EDGE('',*,*,#466,.F.);
#280=ORIENTED_EDGE('',*,*,#439,.T.);
#281=ORIENTED_EDGE('',*,*,#467,.F.);
#282=ORIENTED_EDGE('',*,*,#468,.F.);
#283=ORIENTED_EDGE('',*,*,#469,.F.);
#284=ORIENTED_EDGE('',*,*,#470,.F.);
#285=ORIENTED_EDGE('',*,*,#471,.F.);
#286=ORIENTED_EDGE('',*,*,#472,.F.);
#287=ORIENTED_EDGE('',*,*,#473,.F.);
#288=ORIENTED_EDGE('',*,*,#472,.T.);
#289=ORIENTED_EDGE('',*,*,#474,.T.);
#290=ORIENTED_EDGE('',*,*,#468,.T.);
#291=ORIENTED_EDGE('',*,*,#475,.T.);
#292=ORIENTED_EDGE('',*,*,#470,.T.);
#293=ORIENTED_EDGE('',*,*,#476,.F.);
#294=ORIENTED_EDGE('',*,*,#463,.T.);
#295=ORIENTED_EDGE('',*,*,#477,.F.);
#296=ORIENTED_EDGE('',*,*,#478,.T.);
#297=ORIENTED_EDGE('',*,*,#464,.T.);
#298=ORIENTED_EDGE('',*,*,#432,.T.);
#299=ORIENTED_EDGE('',*,*,#448,.T.);
#300=ORIENTED_EDGE('',*,*,#479,.T.);
#301=ORIENTED_EDGE('',*,*,#444,.T.);
#302=ORIENTED_EDGE('',*,*,#428,.T.);
#303=ORIENTED_EDGE('',*,*,#480,.F.);
#304=ORIENTED_EDGE('',*,*,#481,.T.);
#305=ORIENTED_EDGE('',*,*,#477,.T.);
#306=ORIENTED_EDGE('',*,*,#426,.T.);
#307=ORIENTED_EDGE('',*,*,#482,.F.);
#308=ORIENTED_EDGE('',*,*,#480,.T.);
#309=ORIENTED_EDGE('',*,*,#424,.T.);
#310=ORIENTED_EDGE('',*,*,#423,.F.);
#311=ORIENTED_EDGE('',*,*,#440,.T.);
#312=ORIENTED_EDGE('',*,*,#466,.T.);
#313=ORIENTED_EDGE('',*,*,#446,.F.);
#314=ORIENTED_EDGE('',*,*,#483,.T.);
#315=ORIENTED_EDGE('',*,*,#450,.T.);
#316=ORIENTED_EDGE('',*,*,#443,.T.);
#317=ORIENTED_EDGE('',*,*,#419,.T.);
#318=ORIENTED_EDGE('',*,*,#418,.T.);
#319=ORIENTED_EDGE('',*,*,#460,.F.);
#320=ORIENTED_EDGE('',*,*,#434,.T.);
#321=ORIENTED_EDGE('',*,*,#476,.T.);
#322=ORIENTED_EDGE('',*,*,#469,.T.);
#323=ORIENTED_EDGE('',*,*,#473,.T.);
#324=ORIENTED_EDGE('',*,*,#467,.T.);
#325=ORIENTED_EDGE('',*,*,#438,.T.);
#326=ORIENTED_EDGE('',*,*,#410,.T.);
#327=ORIENTED_EDGE('',*,*,#436,.T.);
#328=ORIENTED_EDGE('',*,*,#484,.T.);
#329=ORIENTED_EDGE('',*,*,#485,.F.);
#330=ORIENTED_EDGE('',*,*,#486,.T.);
#331=ORIENTED_EDGE('',*,*,#487,.F.);
#332=ORIENTED_EDGE('',*,*,#488,.T.);
#333=ORIENTED_EDGE('',*,*,#489,.T.);
#334=ORIENTED_EDGE('',*,*,#414,.T.);
#335=ORIENTED_EDGE('',*,*,#442,.T.);
#336=ORIENTED_EDGE('',*,*,#453,.T.);
#337=ORIENTED_EDGE('',*,*,#459,.T.);
#338=ORIENTED_EDGE('',*,*,#454,.T.);
#339=ORIENTED_EDGE('',*,*,#489,.F.);
#340=ORIENTED_EDGE('',*,*,#490,.F.);
#341=ORIENTED_EDGE('',*,*,#491,.F.);
#342=ORIENTED_EDGE('',*,*,#415,.T.);
#343=ORIENTED_EDGE('',*,*,#492,.F.);
#344=ORIENTED_EDGE('',*,*,#493,.F.);
#345=ORIENTED_EDGE('',*,*,#490,.T.);
#346=ORIENTED_EDGE('',*,*,#488,.F.);
#347=ORIENTED_EDGE('',*,*,#494,.F.);
#348=ORIENTED_EDGE('',*,*,#495,.F.);
#349=ORIENTED_EDGE('',*,*,#496,.F.);
#350=ORIENTED_EDGE('',*,*,#497,.F.);
#351=ORIENTED_EDGE('',*,*,#484,.F.);
#352=ORIENTED_EDGE('',*,*,#435,.F.);
#353=ORIENTED_EDGE('',*,*,#486,.F.);
#354=ORIENTED_EDGE('',*,*,#498,.F.);
#355=ORIENTED_EDGE('',*,*,#499,.F.);
#356=ORIENTED_EDGE('',*,*,#500,.F.);
#357=ORIENTED_EDGE('',*,*,#501,.F.);
#358=ORIENTED_EDGE('',*,*,#498,.T.);
#359=ORIENTED_EDGE('',*,*,#485,.T.);
#360=ORIENTED_EDGE('',*,*,#497,.T.);
#361=ORIENTED_EDGE('',*,*,#487,.T.);
#362=ORIENTED_EDGE('',*,*,#500,.T.);
#363=ORIENTED_EDGE('',*,*,#502,.F.);
#364=ORIENTED_EDGE('',*,*,#494,.T.);
#365=ORIENTED_EDGE('',*,*,#503,.F.);
#366=ORIENTED_EDGE('',*,*,#495,.T.);
#367=ORIENTED_EDGE('',*,*,#437,.T.);
#368=ORIENTED_EDGE('',*,*,#422,.T.);
#369=ORIENTED_EDGE('',*,*,#421,.T.);
#370=ORIENTED_EDGE('',*,*,#420,.F.);
#371=ORIENTED_EDGE('',*,*,#491,.T.);
#372=ORIENTED_EDGE('',*,*,#493,.T.);
#373=ORIENTED_EDGE('',*,*,#501,.T.);
#374=ORIENTED_EDGE('',*,*,#496,.T.);
#375=ORIENTED_EDGE('',*,*,#503,.T.);
#376=ORIENTED_EDGE('',*,*,#492,.T.);
#377=ORIENTED_EDGE('',*,*,#502,.T.);
#378=ORIENTED_EDGE('',*,*,#499,.T.);
#379=ORIENTED_EDGE('',*,*,#451,.T.);
#380=ORIENTED_EDGE('',*,*,#483,.F.);
#381=ORIENTED_EDGE('',*,*,#445,.F.);
#382=ORIENTED_EDGE('',*,*,#479,.F.);
#383=ORIENTED_EDGE('',*,*,#447,.T.);
#384=ORIENTED_EDGE('',*,*,#461,.T.);
#385=ORIENTED_EDGE('',*,*,#456,.T.);
#386=ORIENTED_EDGE('',*,*,#458,.F.);
#387=ORIENTED_EDGE('',*,*,#462,.T.);
#388=ORIENTED_EDGE('',*,*,#478,.F.);
#389=ORIENTED_EDGE('',*,*,#481,.F.);
#390=ORIENTED_EDGE('',*,*,#482,.T.);
#391=ORIENTED_EDGE('',*,*,#465,.T.);
#392=ORIENTED_EDGE('',*,*,#474,.F.);
#393=ORIENTED_EDGE('',*,*,#471,.T.);
#394=ORIENTED_EDGE('',*,*,#475,.F.);
#395=EDGE_CURVE('',#504,#505,#572,.T.);
#396=EDGE_CURVE('',#506,#505,#573,.T.);
#397=EDGE_CURVE('',#507,#506,#574,.T.);
#398=EDGE_CURVE('',#504,#507,#575,.F.);
#399=EDGE_CURVE('',#508,#509,#576,.T.);
#400=EDGE_CURVE('',#510,#508,#577,.F.);
#401=EDGE_CURVE('',#511,#510,#578,.T.);
#402=EDGE_CURVE('',#509,#511,#579,.T.);
#403=EDGE_CURVE('',#512,#513,#40,.T.);
#404=EDGE_CURVE('',#513,#514,#580,.T.);
#405=EDGE_CURVE('',#514,#506,#41,.T.);
#406=EDGE_CURVE('',#505,#509,#42,.T.);
#407=EDGE_CURVE('',#511,#515,#43,.T.);
#408=EDGE_CURVE('',#515,#512,#581,.T.);
#409=EDGE_CURVE('',#516,#517,#582,.T.);
#410=EDGE_CURVE('',#518,#517,#583,.F.);
#411=EDGE_CURVE('',#519,#518,#584,.T.);
#412=EDGE_CURVE('',#516,#519,#585,.T.);
#413=EDGE_CURVE('',#520,#521,#586,.T.);
#414=EDGE_CURVE('',#522,#521,#587,.F.);
#415=EDGE_CURVE('',#523,#522,#588,.T.);
#416=EDGE_CURVE('',#520,#523,#589,.T.);
#417=EDGE_CURVE('',#524,#514,#590,.T.);
#418=EDGE_CURVE('',#507,#524,#44,.F.);
#419=EDGE_CURVE('',#520,#507,#45,.F.);
#420=EDGE_CURVE('',#523,#504,#46,.T.);
#421=EDGE_CURVE('',#508,#504,#47,.F.);
#422=EDGE_CURVE('',#516,#508,#48,.F.);
#423=EDGE_CURVE('',#519,#510,#49,.T.);
#424=EDGE_CURVE('',#525,#510,#50,.F.);
#425=EDGE_CURVE('',#515,#525,#591,.T.);
#426=EDGE_CURVE('',#526,#525,#592,.F.);
#427=EDGE_CURVE('',#512,#526,#593,.T.);
#428=EDGE_CURVE('',#527,#526,#51,.F.);
#429=EDGE_CURVE('',#513,#527,#594,.T.);
#430=EDGE_CURVE('',#524,#527,#595,.F.);
#431=EDGE_CURVE('',#528,#529,#12,.F.);
#432=EDGE_CURVE('',#530,#528,#52,.T.);
#433=EDGE_CURVE('',#531,#530,#13,.T.);
#434=EDGE_CURVE('',#529,#531,#53,.F.);
#435=EDGE_CURVE('',#532,#533,#14,.F.);
#436=EDGE_CURVE('',#517,#533,#54,.F.);
#437=EDGE_CURVE('',#532,#516,#55,.T.);
#438=EDGE_CURVE('',#534,#518,#56,.F.);
#439=EDGE_CURVE('',#535,#534,#15,.F.);
#440=EDGE_CURVE('',#519,#535,#57,.T.);
#441=EDGE_CURVE('',#536,#537,#16,.F.);
#442=EDGE_CURVE('',#521,#537,#58,.F.);
#443=EDGE_CURVE('',#536,#520,#59,.T.);
#444=EDGE_CURVE('',#538,#527,#60,.F.);
#445=EDGE_CURVE('',#538,#539,#596,.T.);
#446=EDGE_CURVE('',#539,#524,#61,.T.);
#447=EDGE_CURVE('',#540,#541,#597,.F.);
#448=EDGE_CURVE('',#528,#540,#62,.T.);
#449=EDGE_CURVE('',#541,#529,#63,.F.);
#450=EDGE_CURVE('',#542,#536,#64,.F.);
#451=EDGE_CURVE('',#543,#542,#598,.F.);
#452=EDGE_CURVE('',#544,#543,#65,.T.);
#453=EDGE_CURVE('',#537,#544,#599,.T.);
#454=EDGE_CURVE('',#545,#546,#600,.T.);
#455=EDGE_CURVE('',#547,#545,#66,.F.);
#456=EDGE_CURVE('',#548,#547,#601,.F.);
#457=EDGE_CURVE('',#546,#548,#67,.T.);
#458=EDGE_CURVE('',#543,#547,#68,.T.);
#459=EDGE_CURVE('',#544,#545,#69,.T.);
#460=EDGE_CURVE('',#529,#546,#70,.T.);
#461=EDGE_CURVE('',#541,#548,#71,.T.);
#462=EDGE_CURVE('',#549,#550,#602,.F.);
#463=EDGE_CURVE('',#531,#549,#72,.T.);
#464=EDGE_CURVE('',#550,#530,#73,.F.);
#465=EDGE_CURVE('',#551,#552,#603,.F.);
#466=EDGE_CURVE('',#535,#551,#74,.T.);
#467=EDGE_CURVE('',#553,#534,#604,.T.);
#468=EDGE_CURVE('',#552,#553,#75,.F.);
#469=EDGE_CURVE('',#554,#555,#605,.T.);
#470=EDGE_CURVE('',#556,#554,#76,.F.);
#471=EDGE_CURVE('',#557,#556,#606,.F.);
#472=EDGE_CURVE('',#555,#557,#77,.T.);
#473=EDGE_CURVE('',#555,#553,#78,.T.);
#474=EDGE_CURVE('',#557,#552,#79,.T.);
#475=EDGE_CURVE('',#549,#556,#80,.T.);
#476=EDGE_CURVE('',#531,#554,#81,.T.);
#477=EDGE_CURVE('',#558,#526,#82,.T.);
#478=EDGE_CURVE('',#558,#550,#83,.T.);
#479=EDGE_CURVE('',#540,#538,#84,.T.);
#480=EDGE_CURVE('',#559,#525,#85,.F.);
#481=EDGE_CURVE('',#559,#558,#607,.T.);
#482=EDGE_CURVE('',#559,#551,#86,.T.);
#483=EDGE_CURVE('',#539,#542,#87,.T.);
#484=EDGE_CURVE('',#533,#560,#608,.T.);
#485=EDGE_CURVE('',#561,#560,#88,.T.);
#486=EDGE_CURVE('',#561,#562,#609,.T.);
#487=EDGE_CURVE('',#563,#562,#89,.T.);
#488=EDGE_CURVE('',#563,#564,#610,.T.);
#489=EDGE_CURVE('',#564,#522,#90,.F.);
#490=EDGE_CURVE('',#565,#564,#17,.T.);
#491=EDGE_CURVE('',#523,#565,#91,.T.);
#492=EDGE_CURVE('',#566,#567,#611,.F.);
#493=EDGE_CURVE('',#565,#566,#92,.T.);
#494=EDGE_CURVE('',#567,#563,#93,.F.);
#495=EDGE_CURVE('',#568,#532,#94,.F.);
#496=EDGE_CURVE('',#569,#568,#612,.F.);
#497=EDGE_CURVE('',#560,#569,#95,.T.);
#498=EDGE_CURVE('',#570,#561,#96,.F.);
#499=EDGE_CURVE('',#571,#570,#613,.F.);
#500=EDGE_CURVE('',#562,#571,#97,.T.);
#501=EDGE_CURVE('',#570,#569,#98,.T.);
#502=EDGE_CURVE('',#567,#571,#99,.T.);
#503=EDGE_CURVE('',#568,#566,#100,.T.);
#504=VERTEX_POINT('',#1101);
#505=VERTEX_POINT('',#1102);
#506=VERTEX_POINT('',#1104);
#507=VERTEX_POINT('',#1106);
#508=VERTEX_POINT('',#1110);
#509=VERTEX_POINT('',#1111);
#510=VERTEX_POINT('',#1113);
#511=VERTEX_POINT('',#1115);
#512=VERTEX_POINT('',#1119);
#513=VERTEX_POINT('',#1120);
#514=VERTEX_POINT('',#1122);
#515=VERTEX_POINT('',#1126);
#516=VERTEX_POINT('',#1130);
#517=VERTEX_POINT('',#1131);
#518=VERTEX_POINT('',#1133);
#519=VERTEX_POINT('',#1135);
#520=VERTEX_POINT('',#1139);
#521=VERTEX_POINT('',#1140);
#522=VERTEX_POINT('',#1142);
#523=VERTEX_POINT('',#1144);
#524=VERTEX_POINT('',#1148);
#525=VERTEX_POINT('',#1160);
#526=VERTEX_POINT('',#1164);
#527=VERTEX_POINT('',#1168);
#528=VERTEX_POINT('',#1174);
#529=VERTEX_POINT('',#1175);
#530=VERTEX_POINT('',#1177);
#531=VERTEX_POINT('',#1179);
#532=VERTEX_POINT('',#1183);
#533=VERTEX_POINT('',#1184);
#534=VERTEX_POINT('',#1189);
#535=VERTEX_POINT('',#1191);
#536=VERTEX_POINT('',#1195);
#537=VERTEX_POINT('',#1196);
#538=VERTEX_POINT('',#1201);
#539=VERTEX_POINT('',#1203);
#540=VERTEX_POINT('',#1207);
#541=VERTEX_POINT('',#1208);
#542=VERTEX_POINT('',#1213);
#543=VERTEX_POINT('',#1215);
#544=VERTEX_POINT('',#1217);
#545=VERTEX_POINT('',#1221);
#546=VERTEX_POINT('',#1222);
#547=VERTEX_POINT('',#1224);
#548=VERTEX_POINT('',#1226);
#549=VERTEX_POINT('',#1236);
#550=VERTEX_POINT('',#1237);
#551=VERTEX_POINT('',#1242);
#552=VERTEX_POINT('',#1243);
#553=VERTEX_POINT('',#1246);
#554=VERTEX_POINT('',#1250);
#555=VERTEX_POINT('',#1251);
#556=VERTEX_POINT('',#1253);
#557=VERTEX_POINT('',#1255);
#558=VERTEX_POINT('',#1265);
#559=VERTEX_POINT('',#1270);
#560=VERTEX_POINT('',#1278);
#561=VERTEX_POINT('',#1280);
#562=VERTEX_POINT('',#1282);
#563=VERTEX_POINT('',#1284);
#564=VERTEX_POINT('',#1286);
#565=VERTEX_POINT('',#1290);
#566=VERTEX_POINT('',#1294);
#567=VERTEX_POINT('',#1295);
#568=VERTEX_POINT('',#1300);
#569=VERTEX_POINT('',#1302);
#570=VERTEX_POINT('',#1306);
#571=VERTEX_POINT('',#1308);
#572=CIRCLE('',#763,0.0005);
#573=CIRCLE('',#764,0.00346047014954375);
#574=CIRCLE('',#765,0.0005);
#575=CIRCLE('',#766,0.00396047014954375);
#576=CIRCLE('',#768,0.0005);
#577=CIRCLE('',#769,0.0045);
#578=CIRCLE('',#770,0.0005);
#579=CIRCLE('',#771,0.004);
#580=CIRCLE('',#773,0.004);
#581=CIRCLE('',#774,0.004);
#582=CIRCLE('',#776,0.0005);
#583=CIRCLE('',#777,0.004);
#584=CIRCLE('',#778,0.0005);
#585=CIRCLE('',#779,0.0045);
#586=CIRCLE('',#781,0.0005);
#587=CIRCLE('',#782,0.00346047014954375);
#588=CIRCLE('',#783,0.0005);
#589=CIRCLE('',#784,0.00396047014954375);
#590=CIRCLE('',#786,0.0005);
#591=CIRCLE('',#791,0.0005);
#592=CIRCLE('',#793,0.0045);
#593=CIRCLE('',#794,0.0005);
#594=CIRCLE('',#796,0.0005);
#595=CIRCLE('',#798,0.0045);
#596=CIRCLE('',#809,0.0045);
#597=CIRCLE('',#811,0.0005);
#598=CIRCLE('',#813,0.0005);
#599=CIRCLE('',#814,0.0005);
#600=CIRCLE('',#816,0.0005);
#601=CIRCLE('',#817,0.0005);
#602=CIRCLE('',#821,0.0005);
#603=CIRCLE('',#823,0.0005);
#604=CIRCLE('',#824,0.0005);
#605=CIRCLE('',#826,0.0005);
#606=CIRCLE('',#827,0.0005);
#607=CIRCLE('',#832,0.0045);
#608=CIRCLE('',#836,0.0005);
#609=CIRCLE('',#837,0.0005);
#610=CIRCLE('',#838,0.0005);
#611=CIRCLE('',#842,0.0005);
#612=CIRCLE('',#844,0.0005);
#613=CIRCLE('',#846,0.0005);
#614=EDGE_LOOP('',(#177,#178,#179,#180));
#615=EDGE_LOOP('',(#181,#182,#183,#184));
#616=EDGE_LOOP('',(#185,#186,#187,#188,#189,#190,#191,#192));
#617=EDGE_LOOP('',(#193,#194,#195,#196));
#618=EDGE_LOOP('',(#197,#198,#199,#200));
#619=EDGE_LOOP('',(#201,#202,#203,#204));
#620=EDGE_LOOP('',(#205,#206,#207,#208));
#621=EDGE_LOOP('',(#209,#210,#211,#212));
#622=EDGE_LOOP('',(#213,#214,#215,#216));
#623=EDGE_LOOP('',(#217,#218,#219,#220));
#624=EDGE_LOOP('',(#221,#222,#223,#224));
#625=EDGE_LOOP('',(#225,#226,#227,#228));
#626=EDGE_LOOP('',(#229,#230,#231,#232));
#627=EDGE_LOOP('',(#233,#234,#235,#236));
#628=EDGE_LOOP('',(#237,#238,#239,#240));
#629=EDGE_LOOP('',(#241,#242,#243,#244));
#630=EDGE_LOOP('',(#245,#246,#247,#248));
#631=EDGE_LOOP('',(#249,#250,#251,#252));
#632=EDGE_LOOP('',(#253,#254,#255,#256));
#633=EDGE_LOOP('',(#257,#258,#259,#260,#261));
#634=EDGE_LOOP('',(#262,#263,#264,#265));
#635=EDGE_LOOP('',(#266,#267,#268,#269));
#636=EDGE_LOOP('',(#270,#271,#272,#273));
#637=EDGE_LOOP('',(#274,#275,#276,#277));
#638=EDGE_LOOP('',(#278,#279,#280,#281,#282));
#639=EDGE_LOOP('',(#283,#284,#285,#286));
#640=EDGE_LOOP('',(#287,#288,#289,#290));
#641=EDGE_LOOP('',(#291,#292,#293,#294));
#642=EDGE_LOOP('',(#295,#296,#297,#298,#299,#300,#301,#302));
#643=EDGE_LOOP('',(#303,#304,#305,#306));
#644=EDGE_LOOP('',(#307,#308,#309,#310,#311,#312));
#645=EDGE_LOOP('',(#313,#314,#315,#316,#317,#318));
#646=EDGE_LOOP('',(#319,#320,#321,#322,#323,#324,#325,#326,#327,#328,#329,
#330,#331,#332,#333,#334,#335,#336,#337,#338));
#647=EDGE_LOOP('',(#339,#340,#341,#342));
#648=EDGE_LOOP('',(#343,#344,#345,#346,#347));
#649=EDGE_LOOP('',(#348,#349,#350,#351,#352));
#650=EDGE_LOOP('',(#353,#354,#355,#356));
#651=EDGE_LOOP('',(#357,#358,#359,#360));
#652=EDGE_LOOP('',(#361,#362,#363,#364));
#653=EDGE_LOOP('',(#365,#366,#367,#368,#369,#370,#371,#372));
#654=EDGE_LOOP('',(#373,#374,#375,#376,#377,#378));
#655=EDGE_LOOP('',(#379,#380,#381,#382,#383,#384,#385,#386));
#656=EDGE_LOOP('',(#387,#388,#389,#390,#391,#392,#393,#394));
#657=FACE_BOUND('',#614,.T.);
#658=FACE_BOUND('',#615,.T.);
#659=FACE_BOUND('',#616,.T.);
#660=FACE_BOUND('',#617,.T.);
#661=FACE_BOUND('',#618,.T.);
#662=FACE_BOUND('',#619,.T.);
#663=FACE_BOUND('',#620,.T.);
#664=FACE_BOUND('',#621,.T.);
#665=FACE_BOUND('',#622,.T.);
#666=FACE_BOUND('',#623,.T.);
#667=FACE_BOUND('',#624,.T.);
#668=FACE_BOUND('',#625,.T.);
#669=FACE_BOUND('',#626,.T.);
#670=FACE_BOUND('',#627,.T.);
#671=FACE_BOUND('',#628,.T.);
#672=FACE_BOUND('',#629,.T.);
#673=FACE_BOUND('',#630,.T.);
#674=FACE_BOUND('',#631,.T.);
#675=FACE_BOUND('',#632,.T.);
#676=FACE_BOUND('',#633,.T.);
#677=FACE_BOUND('',#634,.T.);
#678=FACE_BOUND('',#635,.T.);
#679=FACE_BOUND('',#636,.T.);
#680=FACE_BOUND('',#637,.T.);
#681=FACE_BOUND('',#638,.T.);
#682=FACE_BOUND('',#639,.T.);
#683=FACE_BOUND('',#640,.T.);
#684=FACE_BOUND('',#641,.T.);
#685=FACE_BOUND('',#642,.T.);
#686=FACE_BOUND('',#643,.T.);
#687=FACE_BOUND('',#644,.T.);
#688=FACE_BOUND('',#645,.T.);
#689=FACE_BOUND('',#646,.T.);
#690=FACE_BOUND('',#647,.T.);
#691=FACE_BOUND('',#648,.T.);
#692=FACE_BOUND('',#649,.T.);
#693=FACE_BOUND('',#650,.T.);
#694=FACE_BOUND('',#651,.T.);
#695=FACE_BOUND('',#652,.T.);
#696=FACE_BOUND('',#653,.T.);
#697=FACE_BOUND('',#654,.T.);
#698=FACE_BOUND('',#655,.T.);
#699=FACE_BOUND('',#656,.T.);
#700=TOROIDAL_SURFACE('',#762,0.00346047014954375,0.0005);
#701=TOROIDAL_SURFACE('',#767,0.004,0.0005);
#702=TOROIDAL_SURFACE('',#775,0.004,0.0005);
#703=TOROIDAL_SURFACE('',#780,0.00346047014954375,0.0005);
#704=TOROIDAL_SURFACE('',#792,0.004,0.0005);
#705=TOROIDAL_SURFACE('',#797,0.004,0.0005);
#706=ADVANCED_FACE('',(#657),#700,.T.);
#707=ADVANCED_FACE('',(#658),#701,.T.);
#708=ADVANCED_FACE('',(#659),#162,.T.);
#709=ADVANCED_FACE('',(#660),#702,.T.);
#710=ADVANCED_FACE('',(#661),#703,.T.);
#711=ADVANCED_FACE('',(#662),#18,.T.);
#712=ADVANCED_FACE('',(#663),#19,.T.);
#713=ADVANCED_FACE('',(#664),#20,.T.);
#714=ADVANCED_FACE('',(#665),#21,.T.);
#715=ADVANCED_FACE('',(#666),#22,.T.);
#716=ADVANCED_FACE('',(#667),#704,.T.);
#717=ADVANCED_FACE('',(#668),#23,.T.);
#718=ADVANCED_FACE('',(#669),#705,.T.);
#719=ADVANCED_FACE('',(#670),#24,.T.);
#720=ADVANCED_FACE('',(#671),#25,.T.);
#721=ADVANCED_FACE('',(#672),#26,.T.);
#722=ADVANCED_FACE('',(#673),#27,.T.);
#723=ADVANCED_FACE('',(#674),#28,.T.);
#724=ADVANCED_FACE('',(#675),#29,.T.);
#725=ADVANCED_FACE('',(#676),#30,.T.);
#726=ADVANCED_FACE('',(#677),#31,.T.);
#727=ADVANCED_FACE('',(#678),#163,.F.);
#728=ADVANCED_FACE('',(#679),#164,.T.);
#729=ADVANCED_FACE('',(#680),#32,.T.);
#730=ADVANCED_FACE('',(#681),#33,.T.);
#731=ADVANCED_FACE('',(#682),#34,.T.);
#732=ADVANCED_FACE('',(#683),#165,.F.);
#733=ADVANCED_FACE('',(#684),#166,.F.);
#734=ADVANCED_FACE('',(#685),#167,.F.);
#735=ADVANCED_FACE('',(#686),#35,.T.);
#736=ADVANCED_FACE('',(#687),#168,.T.);
#737=ADVANCED_FACE('',(#688),#169,.F.);
#738=ADVANCED_FACE('',(#689),#170,.F.);
#739=ADVANCED_FACE('',(#690),#36,.T.);
#740=ADVANCED_FACE('',(#691),#37,.T.);
#741=ADVANCED_FACE('',(#692),#38,.T.);
#742=ADVANCED_FACE('',(#693),#39,.T.);
#743=ADVANCED_FACE('',(#694),#171,.T.);
#744=ADVANCED_FACE('',(#695),#172,.T.);
#745=ADVANCED_FACE('',(#696),#173,.T.);
#746=ADVANCED_FACE('',(#697),#174,.F.);
#747=ADVANCED_FACE('',(#698),#175,.F.);
#748=ADVANCED_FACE('',(#699),#176,.F.);
#749=CLOSED_SHELL('',(#706,#707,#708,#709,#710,#711,#712,#713,#714,#715,
#716,#717,#718,#719,#720,#721,#722,#723,#724,#725,#726,#727,#728,#729,#730,
#731,#732,#733,#734,#735,#736,#737,#738,#739,#740,#741,#742,#743,#744,#745,
#746,#747,#748));
#750=STYLED_ITEM('',(#751),#758);
#751=PRESENTATION_STYLE_ASSIGNMENT((#752));
#752=SURFACE_STYLE_USAGE(.BOTH.,#753);
#753=SURFACE_SIDE_STYLE('',(#754));
#754=SURFACE_STYLE_FILL_AREA(#755);
#755=FILL_AREA_STYLE('',(#756));
#756=FILL_AREA_STYLE_COLOUR('',#757);
#757=COLOUR_RGB('',0.498039215686275,0.498039215686275,0.498039215686275);
#758=MANIFOLD_SOLID_BREP('caja inferior-B',#749);
#759=SHAPE_DEFINITION_REPRESENTATION(#1325,#760);
#760=SHAPE_REPRESENTATION('caja inferior-B',(#761),#1320);
#761=AXIS2_PLACEMENT_3D('',#1098,#853,#854);
#762=AXIS2_PLACEMENT_3D('',#1099,#855,#856);
#763=AXIS2_PLACEMENT_3D('',#1100,#857,#858);
#764=AXIS2_PLACEMENT_3D('',#1103,#859,#860);
#765=AXIS2_PLACEMENT_3D('',#1105,#861,#862);
#766=AXIS2_PLACEMENT_3D('',#1107,#863,#864);
#767=AXIS2_PLACEMENT_3D('',#1108,#865,#866);
#768=AXIS2_PLACEMENT_3D('',#1109,#867,#868);
#769=AXIS2_PLACEMENT_3D('',#1112,#869,#870);
#770=AXIS2_PLACEMENT_3D('',#1114,#871,#872);
#771=AXIS2_PLACEMENT_3D('',#1116,#873,#874);
#772=AXIS2_PLACEMENT_3D('',#1117,#875,#876);
#773=AXIS2_PLACEMENT_3D('',#1121,#878,#879);
#774=AXIS2_PLACEMENT_3D('',#1127,#883,#884);
#775=AXIS2_PLACEMENT_3D('',#1128,#885,#886);
#776=AXIS2_PLACEMENT_3D('',#1129,#887,#888);
#777=AXIS2_PLACEMENT_3D('',#1132,#889,#890);
#778=AXIS2_PLACEMENT_3D('',#1134,#891,#892);
#779=AXIS2_PLACEMENT_3D('',#1136,#893,#894);
#780=AXIS2_PLACEMENT_3D('',#1137,#895,#896);
#781=AXIS2_PLACEMENT_3D('',#1138,#897,#898);
#782=AXIS2_PLACEMENT_3D('',#1141,#899,#900);
#783=AXIS2_PLACEMENT_3D('',#1143,#901,#902);
#784=AXIS2_PLACEMENT_3D('',#1145,#903,#904);
#785=AXIS2_PLACEMENT_3D('',#1146,#905,#906);
#786=AXIS2_PLACEMENT_3D('',#1147,#907,#908);
#787=AXIS2_PLACEMENT_3D('',#1150,#910,#911);
#788=AXIS2_PLACEMENT_3D('',#1153,#914,#915);
#789=AXIS2_PLACEMENT_3D('',#1155,#917,#918);
#790=AXIS2_PLACEMENT_3D('',#1158,#921,#922);
#791=AXIS2_PLACEMENT_3D('',#1161,#924,#925);
#792=AXIS2_PLACEMENT_3D('',#1162,#926,#927);
#793=AXIS2_PLACEMENT_3D('',#1163,#928,#929);
#794=AXIS2_PLACEMENT_3D('',#1165,#930,#931);
#795=AXIS2_PLACEMENT_3D('',#1166,#932,#933);
#796=AXIS2_PLACEMENT_3D('',#1169,#935,#936);
#797=AXIS2_PLACEMENT_3D('',#1170,#937,#938);
#798=AXIS2_PLACEMENT_3D('',#1171,#939,#940);
#799=AXIS2_PLACEMENT_3D('',#1172,#941,#942);
#800=AXIS2_PLACEMENT_3D('',#1173,#943,#944);
#801=AXIS2_PLACEMENT_3D('',#1178,#946,#947);
#802=AXIS2_PLACEMENT_3D('',#1181,#949,#950);
#803=AXIS2_PLACEMENT_3D('',#1182,#951,#952);
#804=AXIS2_PLACEMENT_3D('',#1187,#955,#956);
#805=AXIS2_PLACEMENT_3D('',#1190,#958,#959);
#806=AXIS2_PLACEMENT_3D('',#1193,#961,#962);
#807=AXIS2_PLACEMENT_3D('',#1194,#963,#964);
#808=AXIS2_PLACEMENT_3D('',#1199,#967,#968);
#809=AXIS2_PLACEMENT_3D('',#1202,#970,#971);
#810=AXIS2_PLACEMENT_3D('',#1205,#973,#974);
#811=AXIS2_PLACEMENT_3D('',#1206,#975,#976);
#812=AXIS2_PLACEMENT_3D('',#1211,#979,#980);
#813=AXIS2_PLACEMENT_3D('',#1214,#982,#983);
#814=AXIS2_PLACEMENT_3D('',#1218,#985,#986);
#815=AXIS2_PLACEMENT_3D('',#1219,#987,#988);
#816=AXIS2_PLACEMENT_3D('',#1220,#989,#990);
#817=AXIS2_PLACEMENT_3D('',#1225,#992,#993);
#818=AXIS2_PLACEMENT_3D('',#1228,#995,#996);
#819=AXIS2_PLACEMENT_3D('',#1231,#999,#1000);
#820=AXIS2_PLACEMENT_3D('',#1234,#1003,#1004);
#821=AXIS2_PLACEMENT_3D('',#1235,#1005,#1006);
#822=AXIS2_PLACEMENT_3D('',#1240,#1009,#1010);
#823=AXIS2_PLACEMENT_3D('',#1241,#1011,#1012);
#824=AXIS2_PLACEMENT_3D('',#1245,#1014,#1015);
#825=AXIS2_PLACEMENT_3D('',#1248,#1017,#1018);
#826=AXIS2_PLACEMENT_3D('',#1249,#1019,#1020);
#827=AXIS2_PLACEMENT_3D('',#1254,#1022,#1023);
#828=AXIS2_PLACEMENT_3D('',#1257,#1025,#1026);
#829=AXIS2_PLACEMENT_3D('',#1260,#1029,#1030);
#830=AXIS2_PLACEMENT_3D('',#1263,#1033,#1034);
#831=AXIS2_PLACEMENT_3D('',#1268,#1038,#1039);
#832=AXIS2_PLACEMENT_3D('',#1271,#1041,#1042);
#833=AXIS2_PLACEMENT_3D('',#1272,#1043,#1044);
#834=AXIS2_PLACEMENT_3D('',#1274,#1046,#1047);
#835=AXIS2_PLACEMENT_3D('',#1276,#1049,#1050);
#836=AXIS2_PLACEMENT_3D('',#1277,#1051,#1052);
#837=AXIS2_PLACEMENT_3D('',#1281,#1054,#1055);
#838=AXIS2_PLACEMENT_3D('',#1285,#1057,#1058);
#839=AXIS2_PLACEMENT_3D('',#1288,#1060,#1061);
#840=AXIS2_PLACEMENT_3D('',#1289,#1062,#1063);
#841=AXIS2_PLACEMENT_3D('',#1292,#1065,#1066);
#842=AXIS2_PLACEMENT_3D('',#1293,#1067,#1068);
#843=AXIS2_PLACEMENT_3D('',#1298,#1071,#1072);
#844=AXIS2_PLACEMENT_3D('',#1301,#1074,#1075);
#845=AXIS2_PLACEMENT_3D('',#1304,#1077,#1078);
#846=AXIS2_PLACEMENT_3D('',#1307,#1080,#1081);
#847=AXIS2_PLACEMENT_3D('',#1310,#1083,#1084);
#848=AXIS2_PLACEMENT_3D('',#1312,#1086,#1087);
#849=AXIS2_PLACEMENT_3D('',#1314,#1089,#1090);
#850=AXIS2_PLACEMENT_3D('',#1316,#1092,#1093);
#851=AXIS2_PLACEMENT_3D('',#1317,#1094,#1095);
#852=AXIS2_PLACEMENT_3D('',#1318,#1096,#1097);
#853=DIRECTION('',(0.,0.,1.));
#854=DIRECTION('',(1.,0.,0.));
#855=DIRECTION('',(0.,0.,-1.));
#856=DIRECTION('',(-1.,0.,0.));
#857=DIRECTION('',(-1.,0.,0.));
#858=DIRECTION('',(0.,0.,1.));
#859=DIRECTION('',(0.,0.,-1.));
#860=DIRECTION('',(-1.,0.,0.));
#861=DIRECTION('',(0.,-1.,0.));
#862=DIRECTION('',(0.,0.,-1.));
#863=DIRECTION('',(0.,0.,-1.));
#864=DIRECTION('',(-1.,0.,0.));
#865=DIRECTION('',(0.,0.,-1.));
#866=DIRECTION('',(-1.,0.,0.));
#867=DIRECTION('',(-1.,0.,0.));
#868=DIRECTION('',(0.,0.,1.));
#869=DIRECTION('',(0.,0.,-1.));
#870=DIRECTION('',(-1.,0.,0.));
#871=DIRECTION('',(0.,-1.,0.));
#872=DIRECTION('',(0.,0.,-1.));
#873=DIRECTION('',(0.,0.,-1.));
#874=DIRECTION('',(-1.,0.,0.));
#875=DIRECTION('',(0.,0.,-1.));
#876=DIRECTION('',(1.,0.,0.));
#877=DIRECTION('',(-1.,0.,0.));
#878=DIRECTION('',(0.,0.,-1.));
#879=DIRECTION('',(-1.,0.,0.));
#880=DIRECTION('',(-1.58712114817927E-16,1.,0.));
#881=DIRECTION('',(1.,0.,0.));
#882=DIRECTION('',(1.26219077887356E-16,-1.,0.));
#883=DIRECTION('',(0.,0.,-1.));
#884=DIRECTION('',(-1.,0.,0.));
#885=DIRECTION('',(0.,0.,-1.));
#886=DIRECTION('',(-1.,0.,0.));
#887=DIRECTION('',(1.,0.,0.));
#888=DIRECTION('',(0.,0.,-1.));
#889=DIRECTION('',(0.,0.,-1.));
#890=DIRECTION('',(-1.,0.,0.));
#891=DIRECTION('',(0.,-1.,0.));
#892=DIRECTION('',(0.,0.,-1.));
#893=DIRECTION('',(0.,0.,-1.));
#894=DIRECTION('',(-1.,0.,0.));
#895=DIRECTION('',(0.,0.,-1.));
#896=DIRECTION('',(-1.,0.,0.));
#897=DIRECTION('',(0.,1.,0.));
#898=DIRECTION('',(0.,0.,1.));
#899=DIRECTION('',(0.,0.,-1.));
#900=DIRECTION('',(-1.,0.,0.));
#901=DIRECTION('',(1.,1.38777878078144E-14,1.38777878078144E-14));
#902=DIRECTION('',(-1.38777878078144E-14,1.,0.));
#903=DIRECTION('',(0.,0.,-1.));
#904=DIRECTION('',(-1.,0.,0.));
#905=DIRECTION('',(1.58712114817927E-16,-1.,0.));
#906=DIRECTION('',(1.,1.58712114817927E-16,0.));
#907=DIRECTION('',(0.,-1.,0.));
#908=DIRECTION('',(0.,0.,-1.));
#909=DIRECTION('',(-1.58712114817927E-16,1.,0.));
#910=DIRECTION('',(0.,0.,-1.));
#911=DIRECTION('',(-1.,0.,0.));
#912=DIRECTION('',(0.,0.,1.));
#913=DIRECTION('',(0.,0.,-1.));
#914=DIRECTION('',(1.,0.,0.));
#915=DIRECTION('',(0.,0.,-1.));
#916=DIRECTION('',(1.,0.,0.));
#917=DIRECTION('',(0.,0.,-1.));
#918=DIRECTION('',(-1.,0.,0.));
#919=DIRECTION('',(0.,0.,1.));
#920=DIRECTION('',(0.,0.,-1.));
#921=DIRECTION('',(1.26219077887356E-16,-1.,0.));
#922=DIRECTION('',(1.,1.26219077887356E-16,0.));
#923=DIRECTION('',(1.26219077887356E-16,-1.,0.));
#924=DIRECTION('',(0.,-1.,0.));
#925=DIRECTION('',(0.,0.,-1.));
#926=DIRECTION('',(0.,0.,-1.));
#927=DIRECTION('',(-1.,0.,0.));
#928=DIRECTION('',(0.,0.,-1.));
#929=DIRECTION('',(-1.,0.,0.));
#930=DIRECTION('',(-1.,0.,0.));
#931=DIRECTION('',(0.,0.,1.));
#932=DIRECTION('',(1.,0.,0.));
#933=DIRECTION('',(0.,0.,-1.));
#934=DIRECTION('',(-1.,0.,0.));
#935=DIRECTION('',(-1.,0.,0.));
#936=DIRECTION('',(0.,0.,1.));
#937=DIRECTION('',(0.,0.,-1.));
#938=DIRECTION('',(-1.,0.,0.));
#939=DIRECTION('',(0.,0.,-1.));
#940=DIRECTION('',(-1.,0.,0.));
#941=DIRECTION('',(-1.,0.,0.));
#942=DIRECTION('',(0.,0.,1.));
#943=DIRECTION('',(0.707106781186548,0.,-0.707106781186548));
#944=DIRECTION('',(-0.707106781186548,0.,-0.707106781186548));
#945=DIRECTION('',(-1.,0.,0.));
#946=DIRECTION('',(0.707106781186548,0.,0.707106781186548));
#947=DIRECTION('',(-0.707106781186548,0.,0.707106781186548));
#948=DIRECTION('',(-1.,0.,0.));
#949=DIRECTION('',(-1.,0.,0.));
#950=DIRECTION('',(0.,0.,1.));
#951=DIRECTION('',(-0.707106781186548,0.,0.707106781186548));
#952=DIRECTION('',(-0.707106781186548,0.,-0.707106781186548));
#953=DIRECTION('',(1.,0.,0.));
#954=DIRECTION('',(1.,0.,0.));
#955=DIRECTION('',(-1.26219077887356E-16,1.,0.));
#956=DIRECTION('',(-1.,-1.26219077887356E-16,0.));
#957=DIRECTION('',(1.26219077887356E-16,-1.,0.));
#958=DIRECTION('',(-8.92503658892624E-17,0.707106781186548,-0.707106781186548));
#959=DIRECTION('',(8.92503658892624E-17,-0.707106781186548,-0.707106781186548));
#960=DIRECTION('',(1.26219077887356E-16,-1.,0.));
#961=DIRECTION('',(-1.58712114817927E-16,1.,0.));
#962=DIRECTION('',(-1.,-1.58712114817927E-16,0.));
#963=DIRECTION('',(1.12226412644214E-16,-0.707106781186548,0.707106781186548));
#964=DIRECTION('',(-1.12226412644214E-16,0.707106781186548,0.707106781186548));
#965=DIRECTION('',(-1.58712114817927E-16,1.,0.));
#966=DIRECTION('',(-1.58712114817927E-16,1.,0.));
#967=DIRECTION('',(0.,0.,-1.));
#968=DIRECTION('',(-1.,0.,0.));
#969=DIRECTION('',(0.,0.,1.));
#970=DIRECTION('',(0.,0.,-1.));
#971=DIRECTION('',(-1.,0.,0.));
#972=DIRECTION('',(0.,0.,-1.));
#973=DIRECTION('',(0.,0.,-1.));
#974=DIRECTION('',(-1.,0.,0.));
#975=DIRECTION('',(0.,0.,-1.));
#976=DIRECTION('',(-1.,0.,0.));
#977=DIRECTION('',(0.,0.,1.));
#978=DIRECTION('',(0.,0.,1.));
#979=DIRECTION('',(0.,0.,1.));
#980=DIRECTION('',(1.,0.,0.));
#981=DIRECTION('',(0.,0.,1.));
#982=DIRECTION('',(0.,0.,-1.));
#983=DIRECTION('',(-1.,0.,0.));
#984=DIRECTION('',(0.,0.,1.));
#985=DIRECTION('',(0.,0.,-1.));
#986=DIRECTION('',(-1.,0.,0.));
#987=DIRECTION('',(0.,0.,-1.));
#988=DIRECTION('',(-1.,0.,0.));
#989=DIRECTION('',(0.,0.,-1.));
#990=DIRECTION('',(-1.,0.,0.));
#991=DIRECTION('',(0.,0.,1.));
#992=DIRECTION('',(0.,0.,-1.));
#993=DIRECTION('',(-1.,0.,0.));
#994=DIRECTION('',(0.,0.,1.));
#995=DIRECTION('',(-0.637448166868635,-0.770493241083799,0.));
#996=DIRECTION('',(0.770493241083799,-0.637448166868635,0.));
#997=DIRECTION('',(0.770493241083799,-0.637448166868635,0.));
#998=DIRECTION('',(0.770493241083799,-0.637448166868635,0.));
#999=DIRECTION('',(1.,0.,0.));
#1000=DIRECTION('',(0.,0.,-1.));
#1001=DIRECTION('',(0.,1.,0.));
#1002=DIRECTION('',(0.,1.,0.));
#1003=DIRECTION('',(0.,0.,1.));
#1004=DIRECTION('',(1.,0.,0.));
#1005=DIRECTION('',(0.,0.,-1.));
#1006=DIRECTION('',(-1.,0.,0.));
#1007=DIRECTION('',(0.,0.,1.));
#1008=DIRECTION('',(0.,0.,1.));
#1009=DIRECTION('',(0.,0.,-1.));
#1010=DIRECTION('',(-1.,0.,0.));
#1011=DIRECTION('',(0.,0.,-1.));
#1012=DIRECTION('',(-1.,0.,0.));
#1013=DIRECTION('',(0.,0.,1.));
#1014=DIRECTION('',(0.,0.,-1.));
#1015=DIRECTION('',(-1.,0.,0.));
#1016=DIRECTION('',(0.,0.,1.));
#1017=DIRECTION('',(0.,0.,1.));
#1018=DIRECTION('',(1.,0.,0.));
#1019=DIRECTION('',(0.,0.,-1.));
#1020=DIRECTION('',(-1.,0.,0.));
#1021=DIRECTION('',(0.,0.,1.));
#1022=DIRECTION('',(0.,0.,-1.));
#1023=DIRECTION('',(-1.,0.,0.));
#1024=DIRECTION('',(0.,0.,1.));
#1025=DIRECTION('',(0.635639277837731,-0.771986210025754,0.));
#1026=DIRECTION('',(0.771986210025754,0.635639277837731,0.));
#1027=DIRECTION('',(0.771986210025754,0.635639277837731,0.));
#1028=DIRECTION('',(0.771986210025754,0.635639277837731,0.));
#1029=DIRECTION('',(1.,0.,0.));
#1030=DIRECTION('',(0.,0.,-1.));
#1031=DIRECTION('',(0.,1.,0.));
#1032=DIRECTION('',(0.,1.,0.));
#1033=DIRECTION('',(0.,1.,0.));
#1034=DIRECTION('',(0.,0.,1.));
#1035=DIRECTION('',(0.,0.,-1.));
#1036=DIRECTION('',(-1.,0.,0.));
#1037=DIRECTION('',(-1.,0.,0.));
#1038=DIRECTION('',(0.,0.,-1.));
#1039=DIRECTION('',(-1.,0.,0.));
#1040=DIRECTION('',(0.,0.,1.));
#1041=DIRECTION('',(0.,0.,-1.));
#1042=DIRECTION('',(-1.,0.,0.));
#1043=DIRECTION('',(1.,1.26219077887356E-16,0.));
#1044=DIRECTION('',(-1.26219077887356E-16,1.,0.));
#1045=DIRECTION('',(-1.26219077887356E-16,1.,0.));
#1046=DIRECTION('',(1.,1.58712114817927E-16,0.));
#1047=DIRECTION('',(-1.58712114817927E-16,1.,0.));
#1048=DIRECTION('',(-1.58712114817927E-16,1.,0.));
#1049=DIRECTION('',(0.,0.,-1.));
#1050=DIRECTION('',(1.,0.,0.));
#1051=DIRECTION('',(0.,0.,-1.));
#1052=DIRECTION('',(-1.,0.,0.));
#1053=DIRECTION('',(0.771986210025754,0.635639277837731,0.));
#1054=DIRECTION('',(0.,0.,-1.));
#1055=DIRECTION('',(-1.,0.,0.));
#1056=DIRECTION('',(0.770493241083799,-0.637448166868635,0.));
#1057=DIRECTION('',(0.,0.,-1.));
#1058=DIRECTION('',(-1.,0.,0.));
#1059=DIRECTION('',(1.,0.,0.));
#1060=DIRECTION('',(-1.,0.,0.));
#1061=DIRECTION('',(0.,0.,1.));
#1062=DIRECTION('',(0.707106781186548,0.,0.707106781186548));
#1063=DIRECTION('',(-0.707106781186548,0.,0.707106781186548));
#1064=DIRECTION('',(1.,0.,0.));
#1065=DIRECTION('',(0.,0.,1.));
#1066=DIRECTION('',(1.,0.,0.));
#1067=DIRECTION('',(0.,0.,-1.));
#1068=DIRECTION('',(-1.,0.,0.));
#1069=DIRECTION('',(0.,0.,1.));
#1070=DIRECTION('',(0.,0.,1.));
#1071=DIRECTION('',(0.,0.,1.));
#1072=DIRECTION('',(1.,0.,0.));
#1073=DIRECTION('',(0.,0.,1.));
#1074=DIRECTION('',(0.,0.,-1.));
#1075=DIRECTION('',(-1.,0.,0.));
#1076=DIRECTION('',(0.,0.,1.));
#1077=DIRECTION('',(0.,0.,1.));
#1078=DIRECTION('',(1.,0.,0.));
#1079=DIRECTION('',(0.,0.,1.));
#1080=DIRECTION('',(0.,0.,-1.));
#1081=DIRECTION('',(-1.,0.,0.));
#1082=DIRECTION('',(0.,0.,1.));
#1083=DIRECTION('',(0.635639277837731,-0.771986210025754,0.));
#1084=DIRECTION('',(0.771986210025754,0.635639277837731,0.));
#1085=DIRECTION('',(0.771986210025754,0.635639277837731,0.));
#1086=DIRECTION('',(-0.637448166868635,-0.770493241083799,0.));
#1087=DIRECTION('',(0.770493241083799,-0.637448166868635,0.));
#1088=DIRECTION('',(0.770493241083799,-0.637448166868635,0.));
#1089=DIRECTION('',(0.,1.,0.));
#1090=DIRECTION('',(0.,0.,1.));
#1091=DIRECTION('',(-1.,0.,0.));
#1092=DIRECTION('',(0.,0.,-1.));
#1093=DIRECTION('',(1.,0.,0.));
#1094=DIRECTION('',(0.,0.,-1.));
#1095=DIRECTION('',(1.,0.,0.));
#1096=DIRECTION('',(0.,0.,-1.));
#1097=DIRECTION('',(1.,0.,0.));
#1098=CARTESIAN_POINT('',(0.,0.,0.));
#1099=CARTESIAN_POINT('',(-0.0586469296419354,0.0510395298504563,-0.00809));
#1100=CARTESIAN_POINT('',(-0.0586469296419354,0.0545,-0.00809));
#1101=CARTESIAN_POINT('',(-0.0586469296419354,0.055,-0.00809));
#1102=CARTESIAN_POINT('',(-0.0586469296419354,0.0545,-0.00859));
#1103=CARTESIAN_POINT('',(-0.0586469296419354,0.0510395298504563,-0.00859));
#1104=CARTESIAN_POINT('',(-0.0621073997914791,0.0510395298504563,-0.00859));
#1105=CARTESIAN_POINT('',(-0.0621073997914791,0.0510395298504563,-0.00809));
#1106=CARTESIAN_POINT('',(-0.0626073997914791,0.0510395298504563,-0.00809));
#1107=CARTESIAN_POINT('',(-0.0586469296419354,0.0510395298504563,-0.00809));
#1108=CARTESIAN_POINT('',(0.0255,0.0505,-0.00809));
#1109=CARTESIAN_POINT('',(0.0255,0.0545,-0.00809));
#1110=CARTESIAN_POINT('',(0.0255,0.055,-0.00809));
#1111=CARTESIAN_POINT('',(0.0255,0.0545,-0.00859));
#1112=CARTESIAN_POINT('',(0.0255,0.0505,-0.00809));
#1113=CARTESIAN_POINT('',(0.03,0.0505,-0.00809));
#1114=CARTESIAN_POINT('',(0.0295,0.0505,-0.00809));
#1115=CARTESIAN_POINT('',(0.0295,0.0505,-0.00859));
#1116=CARTESIAN_POINT('',(0.0255,0.0505,-0.00859));
#1117=CARTESIAN_POINT('',(-0.0163036998957395,-0.00447500076889993,-0.00859));
#1118=CARTESIAN_POINT('',(-0.0581073997914791,-0.0634500015377998,-0.00859));
#1119=CARTESIAN_POINT('',(0.0255,-0.0634500015377999,-0.00859));
#1120=CARTESIAN_POINT('',(-0.0581073997914791,-0.0634500015377998,-0.00859));
#1121=CARTESIAN_POINT('',(-0.0581073997914791,-0.0594500015377998,-0.00859));
#1122=CARTESIAN_POINT('',(-0.0621073997914791,-0.0594500015377999,-0.00859));
#1123=CARTESIAN_POINT('',(-0.0621073997914791,0.0510395298504563,-0.00859));
#1124=CARTESIAN_POINT('',(-0.0163036998957395,0.0545,-0.00859));
#1125=CARTESIAN_POINT('',(0.0295,-0.00447500076889991,-0.00859));
#1126=CARTESIAN_POINT('',(0.0295,-0.0594500015377998,-0.00859));
#1127=CARTESIAN_POINT('',(0.0255,-0.0594500015377998,-0.00859));
#1128=CARTESIAN_POINT('',(0.0255,0.0505,-0.00709));
#1129=CARTESIAN_POINT('',(0.0255,0.0545,-0.00709));
#1130=CARTESIAN_POINT('',(0.0255,0.055,-0.00709));
#1131=CARTESIAN_POINT('',(0.0255,0.0545,-0.00659));
#1132=CARTESIAN_POINT('',(0.0255,0.0505,-0.00659));
#1133=CARTESIAN_POINT('',(0.0295,0.0505,-0.00659));
#1134=CARTESIAN_POINT('',(0.0295,0.0505,-0.00709));
#1135=CARTESIAN_POINT('',(0.03,0.0505,-0.00709));
#1136=CARTESIAN_POINT('',(0.0255,0.0505,-0.00709));
#1137=CARTESIAN_POINT('',(-0.0586469296419354,0.0510395298504563,-0.00709));
#1138=CARTESIAN_POINT('',(-0.0621073997914791,0.0510395298504563,-0.00709));
#1139=CARTESIAN_POINT('',(-0.0626073997914791,0.0510395298504563,-0.00709));
#1140=CARTESIAN_POINT('',(-0.0621073997914791,0.0510395298504563,-0.00659));
#1141=CARTESIAN_POINT('',(-0.0586469296419354,0.0510395298504563,-0.00659));
#1142=CARTESIAN_POINT('',(-0.0586469296419354,0.0545,-0.00659));
#1143=CARTESIAN_POINT('',(-0.0586469296419354,0.0545,-0.00709));
#1144=CARTESIAN_POINT('',(-0.0586469296419354,0.055,-0.00709));
#1145=CARTESIAN_POINT('',(-0.0586469296419354,0.0510395298504563,-0.00709));
#1146=CARTESIAN_POINT('',(-0.0621073997914791,-0.00447500076889993,-0.00809));
#1147=CARTESIAN_POINT('',(-0.0621073997914791,-0.0594500015377999,-0.00809));
#1148=CARTESIAN_POINT('',(-0.0626073997914791,-0.0594500015377999,-0.00809));
#1149=CARTESIAN_POINT('',(-0.0626073997914791,-0.0594500015377999,-0.00809));
#1150=CARTESIAN_POINT('',(-0.0586469296419354,0.0510395298504563,0.018591));
#1151=CARTESIAN_POINT('',(-0.0626073997914791,0.0510395298504563,0.018591));
#1152=CARTESIAN_POINT('',(-0.0586469296419354,0.055,0.018591));
#1153=CARTESIAN_POINT('',(-0.0163036998957395,0.0545,-0.00809));
#1154=CARTESIAN_POINT('',(-0.0165734648209677,0.055,-0.00809));
#1155=CARTESIAN_POINT('',(0.0255,0.0505,0.018591));
#1156=CARTESIAN_POINT('',(0.0255,0.055,0.018591));
#1157=CARTESIAN_POINT('',(0.03,0.0505,0.018591));
#1158=CARTESIAN_POINT('',(0.0295,-0.00447500076889991,-0.00809));
#1159=CARTESIAN_POINT('',(0.03,-0.00447500076889991,-0.00809));
#1160=CARTESIAN_POINT('',(0.03,-0.0594500015377998,-0.00809));
#1161=CARTESIAN_POINT('',(0.0295,-0.0594500015377998,-0.00809));
#1162=CARTESIAN_POINT('',(0.0255,-0.0594500015377998,-0.00809));
#1163=CARTESIAN_POINT('',(0.0255,-0.0594500015377998,-0.00809));
#1164=CARTESIAN_POINT('',(0.0255,-0.0639500015377999,-0.00809));
#1165=CARTESIAN_POINT('',(0.0255,-0.0634500015377999,-0.00809));
#1166=CARTESIAN_POINT('',(-0.0163036998957395,-0.0634500015377998,-0.00809));
#1167=CARTESIAN_POINT('',(0.0255,-0.0639500015377998,-0.00809));
#1168=CARTESIAN_POINT('',(-0.0581073997914791,-0.0639500015377998,-0.00809));
#1169=CARTESIAN_POINT('',(-0.0581073997914791,-0.0634500015377998,-0.00809));
#1170=CARTESIAN_POINT('',(-0.0581073997914791,-0.0594500015377998,-0.00809));
#1171=CARTESIAN_POINT('',(-0.0581073997914791,-0.0594500015377998,-0.00809));
#1172=CARTESIAN_POINT('',(-0.0372055498957395,-0.0634500015377998,-0.00709));
#1173=CARTESIAN_POINT('',(-0.0393036998957395,-0.0634500015377998,-0.00709));
#1174=CARTESIAN_POINT('',(-0.0393036998957395,-0.0639500015377998,-0.00709));
#1175=CARTESIAN_POINT('',(-0.0388036998957395,-0.0634500015377998,-0.00659));
#1176=CARTESIAN_POINT('',(-0.0372055498957395,-0.0639500015377998,-0.00709));
#1177=CARTESIAN_POINT('',(0.00669630010426044,-0.0639500015377998,-0.00709));
#1178=CARTESIAN_POINT('',(0.00669630010426044,-0.0634500015377998,-0.00709));
#1179=CARTESIAN_POINT('',(0.00619630010426044,-0.0634500015377998,-0.00659));
#1180=CARTESIAN_POINT('',(-0.0163036998957395,-0.0634500015377998,-0.00659));
#1181=CARTESIAN_POINT('',(-0.0165734648209677,0.0545,-0.00709));
#1182=CARTESIAN_POINT('',(-0.00377452308339614,0.0545,-0.00709));
#1183=CARTESIAN_POINT('',(-0.00377452308339614,0.055,-0.00709));
#1184=CARTESIAN_POINT('',(-0.00327452308339614,0.0545,-0.00659));
#1185=CARTESIAN_POINT('',(-0.00238066160267271,0.0545,-0.00659));
#1186=CARTESIAN_POINT('',(0.0255,0.055,-0.00709));
#1187=CARTESIAN_POINT('',(0.0295,-0.00447500076889991,-0.00709));
#1188=CARTESIAN_POINT('',(0.0295,0.0505,-0.00659));
#1189=CARTESIAN_POINT('',(0.0295,0.0224790719025037,-0.00659));
#1190=CARTESIAN_POINT('',(0.0295,0.0219790719025037,-0.00709));
#1191=CARTESIAN_POINT('',(0.03,0.0219790719025037,-0.00709));
#1192=CARTESIAN_POINT('',(0.03,0.0230384426895694,-0.00709));
#1193=CARTESIAN_POINT('',(-0.0621073997914791,-0.0375900007688999,-0.00709));
#1194=CARTESIAN_POINT('',(-0.0621073997914791,0.0219758453301395,-0.00709));
#1195=CARTESIAN_POINT('',(-0.0626073997914791,0.0219758453301395,-0.00709));
#1196=CARTESIAN_POINT('',(-0.0621073997914791,0.0224758453301394,-0.00659));
#1197=CARTESIAN_POINT('',(-0.0621073997914791,-0.00447500076889993,-0.00659));
#1198=CARTESIAN_POINT('',(-0.0626073997914791,-0.0375900007688999,-0.00709));
#1199=CARTESIAN_POINT('',(-0.0581073997914791,-0.0594500015377998,0.018591));
#1200=CARTESIAN_POINT('',(-0.0581073997914791,-0.0639500015377998,0.018591));
#1201=CARTESIAN_POINT('',(-0.0581073997914791,-0.0639500015377998,-0.00459));
#1202=CARTESIAN_POINT('',(-0.0581073997914791,-0.0594500015377998,-0.00459));
#1203=CARTESIAN_POINT('',(-0.0626073997914791,-0.0594500015377998,-0.00459));
#1204=CARTESIAN_POINT('',(-0.0626073997914791,-0.0594500015377999,0.018591));
#1205=CARTESIAN_POINT('',(-0.0393036998957395,-0.0634500015377998,0.018591));
#1206=CARTESIAN_POINT('',(-0.0393036998957395,-0.0634500015377998,-0.00459));
#1207=CARTESIAN_POINT('',(-0.0393036998957395,-0.0639500015377998,-0.00459));
#1208=CARTESIAN_POINT('',(-0.0388036998957395,-0.0634500015377998,-0.00459));
#1209=CARTESIAN_POINT('',(-0.0393036998957395,-0.0639500015377998,-0.00459));
#1210=CARTESIAN_POINT('',(-0.0388036998957395,-0.0634500015377998,-0.00659));
#1211=CARTESIAN_POINT('',(-0.0621073997914791,0.0219758453301395,-0.00659));
#1212=CARTESIAN_POINT('',(-0.0626073997914791,0.0219758453301395,0.018591));
#1213=CARTESIAN_POINT('',(-0.0626073997914791,0.0219758453301395,-0.00459));
#1214=CARTESIAN_POINT('',(-0.0621073997914791,0.0219758453301395,-0.00459));
#1215=CARTESIAN_POINT('',(-0.0617886757080448,0.0223610919506814,-0.00459));
#1216=CARTESIAN_POINT('',(-0.0617886757080448,0.0223610919506814,-0.00659));
#1217=CARTESIAN_POINT('',(-0.0617886757080448,0.0223610919506814,-0.00659));
#1218=CARTESIAN_POINT('',(-0.0621073997914791,0.0219758453301395,-0.00659));
#1219=CARTESIAN_POINT('',(-0.0393036998957395,0.00310977886612395,-0.00659));
#1220=CARTESIAN_POINT('',(-0.0393036998957395,0.00310977886612395,-0.00659));
#1221=CARTESIAN_POINT('',(-0.0389849758123052,0.00349502548666584,-0.00659));
#1222=CARTESIAN_POINT('',(-0.0388036998957395,0.00310977886612395,-0.00659));
#1223=CARTESIAN_POINT('',(-0.0389849758123052,0.00349502548666584,-0.00659));
#1224=CARTESIAN_POINT('',(-0.0389849758123052,0.00349502548666584,-0.00459));
#1225=CARTESIAN_POINT('',(-0.0393036998957395,0.00310977886612395,-0.00459));
#1226=CARTESIAN_POINT('',(-0.0388036998957395,0.00310977886612395,-0.00459));
#1227=CARTESIAN_POINT('',(-0.0388036998957395,0.00310977886612395,-0.00459));
#1228=CARTESIAN_POINT('',(-0.0507055498436093,0.013191747057375,-0.00659));
#1229=CARTESIAN_POINT('',(-0.0507055498436093,0.013191747057375,-0.00459));
#1230=CARTESIAN_POINT('',(-0.0507055498436093,0.013191747057375,-0.00659));
#1231=CARTESIAN_POINT('',(-0.0388036998957395,-0.0303024750563096,-0.00659));
#1232=CARTESIAN_POINT('',(-0.0388036998957395,-0.0303024750563096,-0.00659));
#1233=CARTESIAN_POINT('',(-0.0388036998957395,-0.0303024750563096,-0.00459));
#1234=CARTESIAN_POINT('',(0.00669630010426044,-0.0634500015377998,-0.00659));
#1235=CARTESIAN_POINT('',(0.00669630010426044,-0.0634500015377998,-0.00459));
#1236=CARTESIAN_POINT('',(0.00619630010426044,-0.0634500015377998,-0.00459));
#1237=CARTESIAN_POINT('',(0.00669630010426044,-0.0639500015377998,-0.00459));
#1238=CARTESIAN_POINT('',(0.00619630010426044,-0.0634500015377998,-0.00659));
#1239=CARTESIAN_POINT('',(0.00669630010426044,-0.0639500015377998,0.018591));
#1240=CARTESIAN_POINT('',(0.0295,0.0219790719025037,0.018591));
#1241=CARTESIAN_POINT('',(0.0295,0.0219790719025037,-0.00459));
#1242=CARTESIAN_POINT('',(0.03,0.0219790719025037,-0.00459));
#1243=CARTESIAN_POINT('',(0.0291821803610811,0.0223650650075165,-0.00459));
#1244=CARTESIAN_POINT('',(0.03,0.0219790719025037,-0.00459));
#1245=CARTESIAN_POINT('',(0.0295,0.0219790719025037,-0.00659));
#1246=CARTESIAN_POINT('',(0.0291821803610811,0.0223650650075165,-0.00659));
#1247=CARTESIAN_POINT('',(0.0291821803610811,0.0223650650075165,-0.00659));
#1248=CARTESIAN_POINT('',(0.00669630010426044,0.00320292390204564,-0.00659));
#1249=CARTESIAN_POINT('',(0.00669630010426044,0.00320292390204564,-0.00659));
#1250=CARTESIAN_POINT('',(0.00619630010426044,0.00320292390204565,-0.00659));
#1251=CARTESIAN_POINT('',(0.00637848046534157,0.00358891700705851,-0.00659));
#1252=CARTESIAN_POINT('',(0.00619630010426044,0.00320292390204565,-0.00659));
#1253=CARTESIAN_POINT('',(0.00619630010426044,0.00320292390204565,-0.00459));
#1254=CARTESIAN_POINT('',(0.00669630010426044,0.00320292390204564,-0.00459));
#1255=CARTESIAN_POINT('',(0.00637848046534157,0.00358891700705851,-0.00459));
#1256=CARTESIAN_POINT('',(0.00637848046534158,0.00358891700705851,-0.00659));
#1257=CARTESIAN_POINT('',(0.0180981500521303,0.0132386778653446,-0.00659));
#1258=CARTESIAN_POINT('',(0.0180981500521303,0.0132386778653446,-0.00659));
#1259=CARTESIAN_POINT('',(0.0180981500521303,0.0132386778653446,-0.00459));
#1260=CARTESIAN_POINT('',(0.00619630010426044,-0.03025554424834,-0.00659));
#1261=CARTESIAN_POINT('',(0.00619630010426044,-0.03025554424834,-0.00459));
#1262=CARTESIAN_POINT('',(0.00619630010426044,-0.03025554424834,-0.00659));
#1263=CARTESIAN_POINT('',(-0.0372055498957395,-0.0639500015377998,0.018591));
#1264=CARTESIAN_POINT('',(0.0255,-0.0639500015377999,0.018591));
#1265=CARTESIAN_POINT('',(0.0255,-0.0639500015377999,-0.00459));
#1266=CARTESIAN_POINT('',(-0.0372055498957395,-0.0639500015377998,-0.00459));
#1267=CARTESIAN_POINT('',(-0.0372055498957395,-0.0639500015377998,-0.00459));
#1268=CARTESIAN_POINT('',(0.0255,-0.0594500015377998,0.018591));
#1269=CARTESIAN_POINT('',(0.03,-0.0594500015377998,0.018591));
#1270=CARTESIAN_POINT('',(0.03,-0.0594500015377998,-0.00459));
#1271=CARTESIAN_POINT('',(0.0255,-0.0594500015377998,-0.00459));
#1272=CARTESIAN_POINT('',(0.03,-0.00447500076889991,0.018591));
#1273=CARTESIAN_POINT('',(0.03,-0.00447500076889991,-0.00459));
#1274=CARTESIAN_POINT('',(-0.0626073997914791,-0.0375900007688999,0.018591));
#1275=CARTESIAN_POINT('',(-0.0626073997914791,-0.0375900007688999,-0.00459));
#1276=CARTESIAN_POINT('',(-0.0163036998957395,-0.00447500076889993,-0.00659));
#1277=CARTESIAN_POINT('',(-0.00377452308339614,0.0545,-0.00659));
#1278=CARTESIAN_POINT('',(-0.00345670344447728,0.0541140068949871,-0.00659));
#1279=CARTESIAN_POINT('',(-0.00946383655206548,0.0491678437371568,-0.00659));
#1280=CARTESIAN_POINT('',(-0.0162284315843115,0.0435980003315109,-0.00659));
#1281=CARTESIAN_POINT('',(-0.0165462512232303,0.0439839934365237,-0.00659));
#1282=CARTESIAN_POINT('',(-0.0168649753066647,0.0435987468159818,-0.00659));
#1283=CARTESIAN_POINT('',(-0.0235964269912534,0.0491678437371567,-0.00659));
#1284=CARTESIAN_POINT('',(-0.0295758315009081,0.0541147533794581,-0.00659));
#1285=CARTESIAN_POINT('',(-0.0292571074174738,0.0545,-0.00659));
#1286=CARTESIAN_POINT('',(-0.0297571074174738,0.0545,-0.00659));
#1287=CARTESIAN_POINT('',(-0.0586469296419354,0.0545,-0.00659));
#1288=CARTESIAN_POINT('',(-0.0165734648209677,0.0545,-0.00709));
#1289=CARTESIAN_POINT('',(-0.0292571074174738,0.0545,-0.00709));
#1290=CARTESIAN_POINT('',(-0.0292571074174738,0.055,-0.00709));
#1291=CARTESIAN_POINT('',(-0.0306458424810486,0.055,-0.00709));
#1292=CARTESIAN_POINT('',(-0.0292571074174738,0.0545,0.018591));
#1293=CARTESIAN_POINT('',(-0.0292571074174738,0.0545,-0.00459));
#1294=CARTESIAN_POINT('',(-0.0292571074174738,0.055,-0.00459));
#1295=CARTESIAN_POINT('',(-0.0295758315009081,0.0541147533794581,-0.00459));
#1296=CARTESIAN_POINT('',(-0.0292571074174738,0.055,0.018591));
#1297=CARTESIAN_POINT('',(-0.0295758315009081,0.0541147533794581,-0.00659));
#1298=CARTESIAN_POINT('',(-0.00377452308339614,0.0545,-0.00659));
#1299=CARTESIAN_POINT('',(-0.00377452308339614,0.055,0.018591));
#1300=CARTESIAN_POINT('',(-0.00377452308339614,0.055,-0.00459));
#1301=CARTESIAN_POINT('',(-0.00377452308339614,0.0545,-0.00459));
#1302=CARTESIAN_POINT('',(-0.00345670344447728,0.0541140068949871,-0.00459));
#1303=CARTESIAN_POINT('',(-0.00345670344447728,0.0541140068949871,-0.00659));
#1304=CARTESIAN_POINT('',(-0.0165462512232303,0.0439839934365237,-0.00659));
#1305=CARTESIAN_POINT('',(-0.0162284315843115,0.0435980003315109,-0.00659));
#1306=CARTESIAN_POINT('',(-0.0162284315843115,0.0435980003315109,-0.00459));
#1307=CARTESIAN_POINT('',(-0.0165462512232303,0.0439839934365237,-0.00459));
#1308=CARTESIAN_POINT('',(-0.0168649753066647,0.0435987468159818,-0.00459));
#1309=CARTESIAN_POINT('',(-0.0168649753066647,0.0435987468159818,-0.00659));
#1310=CARTESIAN_POINT('',(-0.00946383655206548,0.0491678437371568,-0.00659));
#1311=CARTESIAN_POINT('',(-0.00946383655206548,0.0491678437371568,-0.00459));
#1312=CARTESIAN_POINT('',(-0.0235964269912534,0.0491678437371567,-0.00659));
#1313=CARTESIAN_POINT('',(-0.0235964269912534,0.0491678437371567,-0.00459));
#1314=CARTESIAN_POINT('',(-0.0165734648209677,0.055,0.018591));
#1315=CARTESIAN_POINT('',(-0.0165734648209677,0.055,-0.00459));
#1316=CARTESIAN_POINT('',(-0.0163036998957395,-0.00447500076889993,-0.00459));
#1317=CARTESIAN_POINT('',(-0.0163036998957395,-0.00447500076889993,-0.00459));
#1318=CARTESIAN_POINT('',(-0.0163036998957395,-0.00447500076889993,-0.00459));
#1319=MECHANICAL_DESIGN_GEOMETRIC_PRESENTATION_REPRESENTATION('',(#750),
#1320);
#1320=(
GEOMETRIC_REPRESENTATION_CONTEXT(3)
GLOBAL_UNCERTAINTY_ASSIGNED_CONTEXT((#1321))
GLOBAL_UNIT_ASSIGNED_CONTEXT((#1324,#1323,#1322))
REPRESENTATION_CONTEXT('caja inferior-B','TOP_LEVEL_ASSEMBLY_PART')
);
#1321=UNCERTAINTY_MEASURE_WITH_UNIT(LENGTH_MEASURE(1.E-8),#1324,
'DISTANCE_ACCURACY_VALUE','Maximum Tolerance applied to model');
#1322=(
NAMED_UNIT(*)
SI_UNIT($,.STERADIAN.)
SOLID_ANGLE_UNIT()
);
#1323=(
NAMED_UNIT(*)
PLANE_ANGLE_UNIT()
SI_UNIT($,.RADIAN.)
);
#1324=(
LENGTH_UNIT()
NAMED_UNIT(*)
SI_UNIT($,.METRE.)
);
#1325=PRODUCT_DEFINITION_SHAPE('','',#1326);
#1326=PRODUCT_DEFINITION('','',#1328,#1327);
#1327=PRODUCT_DEFINITION_CONTEXT('',#1334,'design');
#1328=PRODUCT_DEFINITION_FORMATION_WITH_SPECIFIED_SOURCE('','',#1330,
 .NOT_KNOWN.);
#1329=PRODUCT_RELATED_PRODUCT_CATEGORY('','',(#1330));
#1330=PRODUCT('caja inferior-B','caja inferior-B','caja inferior-B',(#1332));
#1331=PRODUCT_CATEGORY('','');
#1332=PRODUCT_CONTEXT('',#1334,'mechanical');
#1333=APPLICATION_PROTOCOL_DEFINITION('international standard',
'ap242_managed_model_based_3d_engineering',2020,#1334);
#1334=APPLICATION_CONTEXT('managed model based 3d engineering');
ENDSEC;
END-ISO-10303-21;
